<?xml version="1.0" encoding="UTF-8"?>
<svg xmlns="http://www.w3.org/2000/svg" viewBox="0 0 1080 817.2">
  <defs>
    <style>
      .cls-1 {
        fill: #fbea1e;
      }

      .cls-2 {
        fill: #b21b1a;
      }

      .cls-3 {
        fill: none;
        stroke: #fbea1e;
        stroke-miterlimit: 10;
        stroke-width: 20px;
      }
    </style>
  </defs>
  <g id="Calque_2" data-name="Calque 2">
    <path class="cls-2" d="M197.11,92.67S379.12,180.08,540,0c148.95,180.61,341.22,92.67,341.22,92.67,0,0,80.67,516.03-341.22,724.53C98.74,624.76,197.11,92.67,197.11,92.67Z"/>
  </g>
  <g id="Calque_3" data-name="Calque 3">
    <path class="cls-3" d="M235.86,155.27s193.94,19.38,304.14-89.43c95.3,113.27,300.98,90.76,300.98,90.76,0,0,28.5,471.13-300.98,606.77C206.05,641.16,226.73,141.32,235.86,155.27Z"/>
    <path class="cls-1" d="M432,601.18s-8.8-121.58,108-122.57,110.97,122.57,110.97,122.57c0,0-29.44-88.93-110.97-79.24-82.46-9.86-108,79.24-108,79.24Z"/>
    <path class="cls-1" d="M650.97,618.8s-122.49,68.28-173.88-30.38c-53.97-103.59,47.82-145.27,47.82-145.27,0,0-44.09,50.29-16.1,128.29,59.76,90.31,142.16,47.35,142.16,47.35Z"/>
    <path class="cls-1" d="M553.49,434.82s111.26,84.21,36.27,166.36c-78.75,86.27-157.91,12.36-157.91,12.36,0,0,62.38,24.13,126.01-28.95,64.29-87.15-4.37-149.77-4.37-149.77Z"/>
    <rect class="cls-1" x="254.64" y="386.28" width="566.87" height="22.32"/>
  </g>
  <g id="Calque_5" data-name="Calque 5">
    <path class="cls-1" d="M325.53,318.96v-124.35c0-1.93,1.56-3.49,3.49-3.49h59.17c.4,0,.78.07,1.15.2,4.41,1.55,32.53,12.44,31.04,37.09-1,16.54-6.34,23.44-10.77,26.32-2.08,1.35-2.14,4.36-.11,5.78,7.27,5.1,17.43,18.89,15.48,34.49-2.38,19.06-23.93,25.2-28.22,27.13-.45.2-.93.3-1.42.3h-66.31c-1.93,0-3.49-1.56-3.49-3.49Z"/>
    <path class="cls-2" d="M356.16,219.8l28.89.21s7.75,4.56,7.75,11.1c0,7.33-7.96,13.82-7.96,13.82l-28.68-.21v-24.91Z"/>
    <path class="cls-2" d="M356.36,270.25l30.99-.21s9.17,5.52,9,15.28c-.17,9.84-11.31,13.19-11.31,13.19l-28.89.63.21-28.89Z"/>
    <polygon class="cls-1" points="503.29 194.23 583.31 194.23 583.31 216.05 529.27 216.05 529.27 248.61 579.5 248.61 579.5 270.04 529.27 270.04 529.27 299.15 583.31 299.15 583.31 324.48 503.29 324.48 503.29 194.23"/>
    <path class="cls-1" d="M757.75,199.6s-76.46-30.57-97.88,30.62c-6.47,18.47-5.46,38.72,2.06,56.79,25.79,61.97,95.82,32,95.82,32v-25.41s-69.96,24.55-76.2-34.25c-5.43-51.19,59.43-49.22,76.74-33.42-.66-31.71-.54-26.34-.54-26.34Z"/>
  </g>
</svg>